<?xml version="1.0" encoding="UTF-8"?>
<svg id="Layer_2" data-name="Layer 2" xmlns="http://www.w3.org/2000/svg" viewBox="0 0 440 800">
  <defs>
    <style>
      .cls-1 {
        fill: #fbbc04;
      }

      .cls-2 {
        fill: #ea4335;
      }

      .cls-3 {
        fill: #fff;
      }

      .cls-4 {
        fill: #4285f4;
      }

      .cls-5 {
        fill: #444;
      }

      .cls-6 {
        fill: #34a853;
      }
    </style>
  </defs>
  <g id="Layer_1-2" data-name="Layer 1">
    <rect class="cls-3" width="440" height="800"/>
    <g>
      <g>
        <path class="cls-2" d="M176.59,368.65l26.8-15.47c6.31-3.64,8.47-11.71,4.83-18.01-3.64-6.31-11.7-8.47-18.01-4.83l-46.31,26.73,32.69,11.58Z"/>
        <path class="cls-4" d="M196.78,408.41c4.56,0,8.99-2.37,11.43-6.6,3.64-6.31,1.48-14.37-4.83-18.01l-46.31-26.73c-6.31-3.64-14.37-1.48-18.01,4.83-3.64,6.31-1.48,14.37,4.83,18.01l46.31,26.73c2.08,1.2,4.34,1.77,6.58,1.77Z"/>
        <path class="cls-1" d="M242.85,408.41c2.24,0,4.5-.57,6.58-1.77l46.31-26.73-32.28-11.82-27.21,15.71c-6.31,3.64-8.47,11.71-4.83,18.01,2.44,4.23,6.87,6.6,11.43,6.6Z"/>
        <path class="cls-6" d="M289.13,381.68c4.56,0,8.99-2.36,11.43-6.6,3.64-6.31,1.48-14.37-4.83-18.01l-46.31-26.73c-6.31-3.64-14.37-1.48-18.01,4.83-3.64,6.31-1.48,14.37,4.83,18.01l46.31,26.74c2.08,1.2,4.34,1.77,6.58,1.77Z"/>
      </g>
      <g>
        <path class="cls-5" d="M137.91,462.4c-1.64-.92-2.95-2.19-3.91-3.81-.97-1.62-1.45-3.44-1.45-5.45s.48-3.83,1.45-5.45c.97-1.62,2.27-2.89,3.91-3.81s3.44-1.38,5.39-1.38c1.59,0,3.05,.28,4.37,.84,1.32,.56,2.45,1.35,3.4,2.38l-2.65,2.59c-.68-.72-1.44-1.26-2.26-1.62-.83-.36-1.79-.54-2.89-.54-1.25,0-2.4,.29-3.44,.87-1.04,.58-1.87,1.4-2.49,2.48s-.92,2.29-.92,3.66,.31,2.59,.94,3.66c.63,1.07,1.46,1.9,2.52,2.48s2.21,.87,3.46,.87c1.9,0,3.45-.56,4.67-1.68,.38-.34,.71-.78,1-1.31,.29-.53,.49-1.11,.63-1.73h-6.4v-3.27h9.99c.13,.53,.2,1.13,.2,1.79,0,1.35-.2,2.6-.61,3.76-.41,1.16-1.03,2.17-1.86,3.04-.91,.99-2.01,1.74-3.3,2.26s-2.73,.78-4.32,.78c-1.95,0-3.75-.46-5.39-1.38Z"/>
        <path class="cls-5" d="M157.07,442.95h6.88c2.12,0,3.97,.43,5.55,1.28s2.79,2.05,3.64,3.58c.85,1.54,1.28,3.31,1.28,5.32s-.43,3.79-1.28,5.32c-.85,1.54-2.07,2.73-3.64,3.59s-3.42,1.28-5.55,1.28h-6.88v-20.37Zm6.71,16.73c2.2,0,3.88-.58,5.04-1.75,1.16-1.17,1.74-2.76,1.74-4.79s-.58-3.63-1.74-4.79c-1.16-1.17-2.84-1.75-5.04-1.75h-2.87v13.09h2.87Z"/>
        <path class="cls-5" d="M179.49,462.27c-1.37-1-2.32-2.43-2.87-4.27l3.61-1.42c.28,1.08,.77,1.94,1.45,2.59,.68,.65,1.54,.97,2.56,.97,.85,0,1.58-.21,2.19-.64s.91-1.02,.91-1.78-.29-1.38-.87-1.86c-.58-.48-1.61-1-3.09-1.55l-1.25-.46c-1.31-.46-2.43-1.15-3.36-2.09-.93-.94-1.39-2.12-1.39-3.54,0-1.06,.27-2.03,.83-2.9,.55-.87,1.33-1.56,2.33-2.06,1-.5,2.14-.75,3.41-.75,1.84,0,3.29,.43,4.35,1.29s1.79,1.87,2.19,3.03l-3.39,1.42c-.21-.63-.57-1.15-1.09-1.58-.52-.43-1.19-.64-2.01-.64s-1.52,.19-2.06,.58c-.54,.39-.81,.9-.81,1.52s.26,1.12,.77,1.55,1.36,.84,2.53,1.24l1.28,.43c1.76,.61,3.12,1.41,4.05,2.4,.94,1,1.41,2.3,1.41,3.91,0,1.33-.34,2.45-1.02,3.37-.68,.92-1.56,1.61-2.63,2.06-1.07,.46-2.18,.68-3.31,.68-1.78,0-3.36-.5-4.72-1.51Z"/>
        <path class="cls-5" d="M199.06,462.37c-1.63-.94-2.92-2.22-3.86-3.84-.94-1.62-1.41-3.42-1.41-5.39s.47-3.77,1.41-5.39c.94-1.62,2.22-2.9,3.86-3.84,1.63-.94,3.43-1.41,5.41-1.41,3.07,0,5.61,1.11,7.62,3.33l-2.7,2.62c-1.31-1.54-2.94-2.3-4.89-2.3-1.27,0-2.43,.29-3.47,.87-1.04,.58-1.86,1.4-2.46,2.46-.6,1.06-.9,2.29-.9,3.67s.3,2.61,.9,3.67c.6,1.06,1.42,1.88,2.46,2.46s2.2,.87,3.47,.87c2.14,0,3.94-.89,5.38-2.67l2.73,2.59c-1,1.21-2.2,2.14-3.57,2.77-1.38,.64-2.9,.95-4.57,.95-1.97,0-3.77-.47-5.41-1.41Z"/>
        <path class="cls-5" d="M222.25,453.51h13.54v1.99h-13.54v-1.99Z"/>
        <path class="cls-5" d="M246.43,442.95h2.39v18.07h8.93v2.3h-11.32v-20.37Z"/>
        <path class="cls-5" d="M260.91,442.95h2.39v20.37h-2.39v-20.37Z"/>
        <path class="cls-5" d="M267.85,442.95h3.5l6.49,16.7h.11l6.49-16.7h3.5v20.37h-2.39v-12.95l.11-3.87h-.11l-6.66,16.81h-1.99l-6.66-16.81h-.11l.11,3.87v12.95h-2.39v-20.37Z"/>
        <path class="cls-5" d="M295.71,462.77c-1.14-.67-2.02-1.61-2.65-2.82-.63-1.2-.94-2.59-.94-4.17v-12.83h2.42v12.94c0,1.65,.44,2.99,1.31,4.03,.87,1.03,2.12,1.55,3.76,1.55s2.89-.52,3.77-1.55,1.32-2.38,1.32-4.03v-12.94h2.39v12.83c0,1.57-.3,2.97-.9,4.18-.6,1.21-1.46,2.15-2.59,2.82-1.13,.66-2.46,1-4,1s-2.76-.34-3.9-1.01Z"/>
      </g>
    </g>
  </g>
</svg>