<?xml version="1.0" encoding="UTF-8"?>
<svg id="Layer_2" data-name="Layer 2" xmlns="http://www.w3.org/2000/svg" xmlns:xlink="http://www.w3.org/1999/xlink" viewBox="0 0 3904 2440">
  <defs>
    <style>
      .cls-1, .cls-2, .cls-3, .cls-4 {
        fill: none;
      }

      .cls-2 {
        stroke: #ecaa00;
      }

      .cls-2, .cls-3, .cls-4 {
        stroke-miterlimit: 10;
        stroke-width: 3px;
      }

      .cls-3 {
        stroke: #2468d3;
      }

      .cls-4 {
        stroke: #ca2821;
      }

      .cls-5 {
        clip-path: url(#clippath);
      }

      .cls-6 {
        fill: #ecaa00;
      }

      .cls-7 {
        fill: #fcfcfc;
      }

      .cls-8 {
        fill: #ca2821;
      }

      .cls-9 {
        fill: #4285f4;
      }

      .cls-10 {
        fill: #34a853;
      }
    </style>
    <clipPath id="clippath">
      <rect class="cls-1" width="3904" height="2440"/>
    </clipPath>
  </defs>
  <g id="Layer_1-2" data-name="Layer 1">
    <g class="cls-5">
      <rect class="cls-7" y="-1.88" width="3904" height="2440"/>
      <circle class="cls-10" cx="3837.98" cy="59.03" r="225"/>
      <rect class="cls-4" x="3792.01" y="229.65" width="91.92" height="91.92" transform="translate(929.23 2794.58) rotate(-45)"/>
      <circle class="cls-10" cx="3837.98" cy="2357.18" r="225"/>
      <rect class="cls-4" x="3594.39" y="2203.7" width="91.92" height="91.92" transform="translate(7805.22 1266.29) rotate(135)"/>
      <circle class="cls-6" cx="67.04" cy="60.03" r="225"/>
      <rect class="cls-4" x="246.08" y="66.81" width="91.92" height="91.92" transform="translate(5.79 239.53) rotate(-45)"/>
      <circle class="cls-9" cx="67.04" cy="2357.18" r="225"/>
      <rect class="cls-2" x="218.76" y="2203.7" width="91.92" height="91.92" transform="translate(-1513.22 846.09) rotate(-45)"/>
      <circle class="cls-3" cx="107.7" cy="1090.1" r="65"/>
      <rect class="cls-8" x="-150.26" y="857.24" width="300.52" height="300.52" transform="translate(-712.41 295.09) rotate(-45)"/>
      <rect class="cls-9" x="3812.99" y="857.24" width="300.52" height="300.52" transform="translate(448.4 3097.53) rotate(-45)"/>
      <circle class="cls-2" cx="3837.98" cy="916.18" r="65"/>
    </g>
  </g>
</svg>