<?xml version="1.0" encoding="UTF-8"?>
<svg id="Layer_2" data-name="Layer 2" xmlns="http://www.w3.org/2000/svg" viewBox="0 0 814.11 98.73">
  <defs>
    <style>
      .cls-1 {
        fill: #fbbc04;
      }

      .cls-2 {
        fill: #ea4335;
      }

      .cls-3 {
        fill: #656c73;
      }

      .cls-4 {
        fill: #4285f4;
      }

      .cls-5 {
        fill: #34a853;
      }
    </style>
  </defs>
  <g id="Layer_1-2" data-name="Layer 1">
    <g>
      <g>
        <g>
          <path class="cls-3" d="M127.54,38.9c-2.8-1.6-5-3.81-6.62-6.62-1.62-2.81-2.43-5.91-2.43-9.31s.81-6.5,2.43-9.32c1.62-2.81,3.82-5.02,6.62-6.62,2.8-1.6,5.84-2.4,9.14-2.4,2.58,0,5.01,.46,7.28,1.37,2.27,.91,4.14,2.2,5.61,3.87l-2.99,2.99c-1.11-1.37-2.54-2.43-4.29-3.16-1.75-.74-3.62-1.1-5.62-1.1-2.45,0-4.75,.6-6.89,1.79-2.14,1.19-3.86,2.88-5.15,5.05-1.29,2.18-1.94,4.68-1.94,7.53s.65,5.35,1.94,7.52c1.29,2.18,3.01,3.86,5.15,5.05,2.14,1.19,4.44,1.79,6.89,1.79s4.32-.37,5.91-1.1,2.97-1.71,4.14-2.92c.85-.91,1.54-2.03,2.06-3.33,.52-1.31,.83-2.73,.93-4.27h-12.94v-3.87h16.87c.16,.92,.25,1.77,.25,2.55,0,2.16-.34,4.26-1.03,6.3-.69,2.04-1.78,3.83-3.29,5.37-3.3,3.5-7.6,5.25-12.89,5.25-3.3,0-6.35-.8-9.14-2.4Z"/>
          <path class="cls-3" d="M163.06,39.62c-1.9-1.13-3.37-2.68-4.44-4.66-1.06-1.98-1.59-4.17-1.59-6.59s.53-4.62,1.59-6.59c1.06-1.98,2.54-3.53,4.44-4.66,1.9-1.13,4.04-1.69,6.42-1.69s4.54,.56,6.45,1.69c1.91,1.13,3.4,2.68,4.46,4.66,1.06,1.98,1.59,4.17,1.59,6.59s-.53,4.62-1.59,6.59c-1.06,1.98-2.55,3.53-4.46,4.66-1.91,1.13-4.06,1.69-6.45,1.69s-4.53-.56-6.42-1.69Zm10.54-3.21c1.28-.75,2.3-1.82,3.07-3.21,.77-1.39,1.15-3,1.15-4.83s-.38-3.44-1.15-4.83c-.77-1.39-1.79-2.46-3.07-3.21-1.27-.75-2.65-1.13-4.12-1.13s-2.79,.38-4.07,1.13c-1.27,.75-2.3,1.82-3.06,3.21-.77,1.39-1.15,3-1.15,4.83s.38,3.44,1.15,4.83c.77,1.39,1.79,2.46,3.06,3.21,1.28,.75,2.63,1.13,4.07,1.13s2.84-.38,4.12-1.13Z"/>
          <path class="cls-3" d="M190.86,39.62c-1.9-1.13-3.37-2.68-4.44-4.66-1.06-1.98-1.59-4.17-1.59-6.59s.53-4.62,1.59-6.59c1.06-1.98,2.54-3.53,4.44-4.66,1.9-1.13,4.04-1.69,6.42-1.69s4.54,.56,6.45,1.69c1.91,1.13,3.4,2.68,4.46,4.66,1.06,1.98,1.59,4.17,1.59,6.59s-.53,4.62-1.59,6.59c-1.06,1.98-2.55,3.53-4.46,4.66-1.91,1.13-4.06,1.69-6.45,1.69s-4.53-.56-6.42-1.69Zm10.54-3.21c1.28-.75,2.3-1.82,3.07-3.21,.77-1.39,1.15-3,1.15-4.83s-.38-3.44-1.15-4.83c-.77-1.39-1.79-2.46-3.07-3.21-1.27-.75-2.65-1.13-4.12-1.13s-2.79,.38-4.07,1.13c-1.27,.75-2.3,1.82-3.06,3.21-.77,1.39-1.15,3-1.15,4.83s.38,3.44,1.15,4.83c.77,1.39,1.79,2.46,3.06,3.21,1.28,.75,2.63,1.13,4.07,1.13s2.84-.38,4.12-1.13Z"/>
          <path class="cls-3" d="M217.49,49.79c-1.86-1.4-3.12-3.04-3.78-4.9l3.87-1.62c.49,1.44,1.36,2.61,2.62,3.51,1.26,.9,2.75,1.35,4.49,1.35,2.58,0,4.57-.75,5.96-2.25s2.08-3.59,2.08-6.28v-2.6h-.2c-.78,1.24-1.91,2.27-3.38,3.09-1.47,.82-3.14,1.22-5,1.22-2.06,0-3.97-.56-5.74-1.67-1.77-1.11-3.17-2.66-4.22-4.63-1.05-1.97-1.57-4.18-1.57-6.64s.52-4.67,1.57-6.64c1.05-1.97,2.45-3.51,4.22-4.63,1.76-1.12,3.68-1.67,5.74-1.67,1.86,0,3.53,.41,5,1.22,1.47,.82,2.6,1.85,3.38,3.09h.2v-3.53h3.97v23.34c0,2.68-.52,4.95-1.57,6.82-1.05,1.86-2.48,3.25-4.29,4.17-1.81,.91-3.87,1.37-6.15,1.37-2.94,0-5.34-.7-7.21-2.11Zm11.28-13.37c1.21-.74,2.18-1.8,2.92-3.18,.74-1.38,1.1-3.01,1.1-4.88s-.37-3.51-1.1-4.9-1.71-2.46-2.92-3.18-2.53-1.08-3.97-1.08-2.76,.37-3.97,1.11-2.18,1.8-2.92,3.18-1.1,3.01-1.1,4.88,.37,3.5,1.1,4.88c.74,1.38,1.71,2.44,2.92,3.18,1.21,.74,2.53,1.11,3.97,1.11s2.76-.37,3.97-1.11Z"/>
          <path class="cls-3" d="M242.34,5.42h4.17V40.52h-4.17V5.42Z"/>
          <path class="cls-3" d="M256.39,39.64c-1.85-1.11-3.29-2.65-4.34-4.61-1.05-1.96-1.57-4.18-1.57-6.67,0-2.35,.49-4.52,1.47-6.5,.98-1.98,2.38-3.55,4.19-4.71,1.81-1.16,3.9-1.74,6.25-1.74s4.42,.53,6.2,1.59c1.78,1.06,3.14,2.56,4.09,4.49,.95,1.93,1.42,4.15,1.42,6.67,0,.46-.03,.78-.1,.98h-19.32c.07,1.83,.51,3.37,1.32,4.63,.82,1.26,1.84,2.2,3.07,2.82s2.49,.93,3.8,.93c3.07,0,5.44-1.5,7.11-4.51l3.68,1.77c-1.05,1.96-2.49,3.54-4.34,4.73-1.85,1.19-4.06,1.79-6.64,1.79-2.35,0-4.45-.55-6.3-1.67Zm13.31-13.97c-.07-.98-.34-1.96-.83-2.94s-1.28-1.81-2.38-2.5c-1.1-.69-2.49-1.03-4.19-1.03-1.83,0-3.42,.59-4.75,1.77-1.34,1.18-2.19,2.75-2.55,4.7h14.71Z"/>
          <path class="cls-3" d="M290.05,5.42h10.64c3.6,0,6.73,.74,9.41,2.23,2.68,1.49,4.74,3.56,6.18,6.2s2.16,5.69,2.16,9.12-.72,6.47-2.16,9.12-3.5,4.72-6.18,6.2c-2.68,1.49-5.82,2.23-9.41,2.23h-10.64V5.42Zm10.64,31.13c4.15,0,7.44-1.19,9.85-3.58,2.42-2.39,3.63-5.72,3.63-10s-1.21-7.62-3.63-10-5.7-3.58-9.85-3.58h-6.47v27.16h6.47Z"/>
          <path class="cls-3" d="M327.87,39.64c-1.85-1.11-3.29-2.65-4.34-4.61-1.05-1.96-1.57-4.18-1.57-6.67,0-2.35,.49-4.52,1.47-6.5,.98-1.98,2.38-3.55,4.19-4.71,1.81-1.16,3.9-1.74,6.25-1.74s4.42,.53,6.2,1.59c1.78,1.06,3.15,2.56,4.09,4.49,.95,1.93,1.42,4.15,1.42,6.67,0,.46-.03,.78-.1,.98h-19.32c.06,1.83,.51,3.37,1.32,4.63,.82,1.26,1.84,2.2,3.06,2.82,1.23,.62,2.49,.93,3.8,.93,3.07,0,5.44-1.5,7.11-4.51l3.68,1.77c-1.05,1.96-2.49,3.54-4.34,4.73s-4.06,1.79-6.64,1.79c-2.35,0-4.45-.55-6.3-1.67Zm13.31-13.97c-.07-.98-.34-1.96-.83-2.94s-1.28-1.81-2.38-2.5c-1.1-.69-2.49-1.03-4.19-1.03-1.83,0-3.42,.59-4.76,1.77-1.34,1.18-2.19,2.75-2.55,4.7h14.71Z"/>
          <path class="cls-3" d="M346.58,16.21h4.51l7.45,19.42h.1l7.55-19.42h4.41l-9.95,24.32h-4.22l-9.85-24.32Z"/>
          <path class="cls-3" d="M378.22,39.64c-1.85-1.11-3.29-2.65-4.34-4.61-1.05-1.96-1.57-4.18-1.57-6.67,0-2.35,.49-4.52,1.47-6.5,.98-1.98,2.38-3.55,4.19-4.71,1.81-1.16,3.9-1.74,6.25-1.74s4.42,.53,6.2,1.59c1.78,1.06,3.14,2.56,4.09,4.49,.95,1.93,1.42,4.15,1.42,6.67,0,.46-.03,.78-.1,.98h-19.32c.07,1.83,.51,3.37,1.32,4.63,.82,1.26,1.84,2.2,3.07,2.82s2.49,.93,3.8,.93c3.07,0,5.44-1.5,7.11-4.51l3.68,1.77c-1.05,1.96-2.49,3.54-4.34,4.73-1.85,1.19-4.06,1.79-6.64,1.79-2.35,0-4.45-.55-6.3-1.67Zm13.31-13.97c-.07-.98-.34-1.96-.83-2.94s-1.28-1.81-2.38-2.5c-1.1-.69-2.49-1.03-4.19-1.03-1.83,0-3.42,.59-4.75,1.77-1.34,1.18-2.19,2.75-2.55,4.7h14.71Z"/>
          <path class="cls-3" d="M400.16,5.42h4.17V40.52h-4.17V5.42Z"/>
          <path class="cls-3" d="M414.33,39.62c-1.9-1.13-3.37-2.68-4.44-4.66-1.06-1.98-1.59-4.17-1.59-6.59s.53-4.62,1.59-6.59c1.06-1.98,2.54-3.53,4.44-4.66,1.9-1.13,4.04-1.69,6.42-1.69s4.54,.56,6.45,1.69c1.91,1.13,3.4,2.68,4.46,4.66,1.06,1.98,1.59,4.17,1.59,6.59s-.53,4.62-1.59,6.59c-1.06,1.98-2.55,3.53-4.46,4.66-1.91,1.13-4.06,1.69-6.45,1.69s-4.53-.56-6.42-1.69Zm10.54-3.21c1.28-.75,2.3-1.82,3.07-3.21,.77-1.39,1.15-3,1.15-4.83s-.38-3.44-1.15-4.83c-.77-1.39-1.79-2.46-3.07-3.21-1.27-.75-2.65-1.13-4.12-1.13s-2.79,.38-4.07,1.13c-1.27,.75-2.3,1.82-3.06,3.21-.77,1.39-1.15,3-1.15,4.83s.38,3.44,1.15,4.83c.77,1.39,1.79,2.46,3.06,3.21,1.28,.75,2.63,1.13,4.07,1.13s2.84-.38,4.12-1.13Z"/>
          <path class="cls-3" d="M437.04,16.21h3.97v3.58h.2c.78-1.24,1.91-2.28,3.38-3.11s3.17-1.25,5.1-1.25c2.09,0,4.02,.56,5.78,1.69,1.77,1.13,3.17,2.67,4.22,4.63,1.05,1.96,1.57,4.17,1.57,6.62s-.52,4.66-1.57,6.62c-1.05,1.96-2.45,3.51-4.22,4.63-1.76,1.13-3.69,1.69-5.78,1.69-1.93,0-3.64-.42-5.12-1.25s-2.61-1.89-3.36-3.16h-.2l.2,3.38v10.84h-4.17V16.21Zm16.01,20.2c1.22-.75,2.2-1.82,2.94-3.21,.74-1.39,1.1-3,1.1-4.83s-.37-3.44-1.1-4.83c-.74-1.39-1.72-2.46-2.94-3.21-1.23-.75-2.56-1.13-4-1.13s-2.77,.37-4,1.1-2.21,1.8-2.94,3.19c-.73,1.39-1.1,3.02-1.1,4.88s.37,3.45,1.1,4.85c.74,1.4,1.72,2.48,2.94,3.21s2.56,1.1,4,1.1,2.77-.38,4-1.13Z"/>
          <path class="cls-3" d="M470.99,39.64c-1.85-1.11-3.29-2.65-4.34-4.61-1.05-1.96-1.57-4.18-1.57-6.67,0-2.35,.49-4.52,1.47-6.5,.98-1.98,2.38-3.55,4.19-4.71,1.81-1.16,3.9-1.74,6.25-1.74s4.42,.53,6.2,1.59c1.78,1.06,3.14,2.56,4.09,4.49,.95,1.93,1.42,4.15,1.42,6.67,0,.46-.03,.78-.1,.98h-19.32c.07,1.83,.51,3.37,1.32,4.63,.82,1.26,1.84,2.2,3.07,2.82s2.49,.93,3.8,.93c3.07,0,5.44-1.5,7.11-4.51l3.68,1.77c-1.05,1.96-2.49,3.54-4.34,4.73-1.85,1.19-4.06,1.79-6.64,1.79-2.35,0-4.45-.55-6.3-1.67Zm13.31-13.97c-.07-.98-.34-1.96-.83-2.94s-1.28-1.81-2.38-2.5c-1.1-.69-2.49-1.03-4.19-1.03-1.83,0-3.42,.59-4.75,1.77-1.34,1.18-2.19,2.75-2.55,4.7h14.71Z"/>
          <path class="cls-3" d="M492.92,16.21h3.97v3.97h.2c.46-1.34,1.4-2.47,2.82-3.38,1.42-.91,2.84-1.37,4.24-1.37,1.01,0,1.96,.16,2.84,.49v4.46c-.88-.49-2.03-.73-3.43-.73-1.15,0-2.22,.33-3.21,1.01-1,.67-1.79,1.56-2.38,2.68-.59,1.11-.88,2.33-.88,3.64v13.56h-4.17V16.21Z"/>
          <path class="cls-3" d="M525.26,40.21c-1.65-.74-3.1-1.81-4.36-3.24-1.26-1.42-2.17-3.15-2.72-5.17l3.97-1.62c.55,2.09,1.59,3.81,3.09,5.15,1.5,1.34,3.25,2.01,5.25,2.01s3.79-.55,5.2-1.64c1.41-1.1,2.11-2.59,2.11-4.49,0-1.63-.6-2.98-1.79-4.04s-3.15-2.05-5.86-2.97l-2.21-.79c-2.49-.88-4.51-2.04-6.08-3.48s-2.35-3.43-2.35-5.98c0-1.67,.46-3.21,1.37-4.63,.91-1.42,2.18-2.56,3.8-3.41s3.44-1.28,5.47-1.28,3.8,.38,5.32,1.13c1.52,.75,2.73,1.67,3.63,2.75s1.51,2.14,1.84,3.19l-3.87,1.67c-.36-1.24-1.11-2.35-2.25-3.31-1.15-.96-2.66-1.45-4.56-1.45-1.8,0-3.34,.51-4.61,1.52-1.27,1.01-1.91,2.29-1.91,3.82,0,1.37,.54,2.49,1.62,3.36s2.71,1.67,4.9,2.43l2.25,.78c2.97,1.08,5.3,2.43,6.99,4.05,1.68,1.62,2.52,3.82,2.52,6.59,0,2.25-.58,4.15-1.74,5.69-1.16,1.54-2.62,2.66-4.39,3.38-1.76,.72-3.6,1.08-5.49,1.08-1.76,0-3.47-.37-5.12-1.1Z"/>
          <path class="cls-3" d="M552.13,40.81c-.83-.33-1.54-.78-2.13-1.35-.65-.63-1.14-1.37-1.45-2.22-.31-.85-.47-1.86-.47-3.02v-14.24h-4.31v-3.78h4.31v-7.26h4.12v7.26h5.98v3.78h-5.98v13.24c0,1.4,.28,2.44,.83,3.11,.55,.74,1.4,1.1,2.55,1.1,1.01,0,1.9-.23,2.65-.69v4.02c-.52,.2-1.02,.33-1.5,.42-.47,.08-1.1,.12-1.89,.12-.98,0-1.89-.17-2.72-.5Z"/>
          <path class="cls-3" d="M564.68,38.71c-1.55-1.73-2.33-4.13-2.33-7.21v-15.3h4.17v14.61c0,4.48,2.01,6.72,6.03,6.72,1.34,0,2.54-.38,3.6-1.13,1.06-.75,1.88-1.73,2.45-2.94s.86-2.48,.86-3.83v-13.43h4.12v24.32h-3.92v-3.63h-.2c-.72,1.24-1.81,2.29-3.26,3.14-1.45,.85-3.02,1.27-4.68,1.27-3.01,0-5.29-.86-6.84-2.6Z"/>
          <path class="cls-3" d="M593.38,39.64c-1.76-1.11-3.17-2.65-4.22-4.63-1.05-1.98-1.57-4.19-1.57-6.64s.52-4.67,1.57-6.64c1.05-1.98,2.45-3.52,4.22-4.63,1.77-1.11,3.69-1.67,5.79-1.67,1.9,0,3.6,.42,5.1,1.25,1.5,.83,2.63,1.87,3.38,3.11h.2l-.2-3.33V5.42h4.12V40.52h-3.92v-3.63h-.2c-.75,1.28-1.88,2.33-3.38,3.16-1.5,.83-3.2,1.25-5.1,1.25-2.09,0-4.02-.55-5.79-1.67Zm10.42-3.21c1.23-.74,2.2-1.81,2.94-3.21s1.1-3.02,1.1-4.85-.37-3.49-1.1-4.88c-.74-1.39-1.71-2.45-2.94-3.19s-2.56-1.1-4-1.1-2.77,.38-4,1.13c-1.23,.75-2.21,1.82-2.94,3.21-.74,1.39-1.1,3-1.1,4.83s.37,3.44,1.1,4.83c.73,1.39,1.71,2.46,2.94,3.21,1.23,.75,2.56,1.13,4,1.13s2.77-.37,4-1.1Z"/>
          <path class="cls-3" d="M621.7,39.64c-1.85-1.11-3.29-2.65-4.34-4.61-1.05-1.96-1.57-4.18-1.57-6.67,0-2.35,.49-4.52,1.47-6.5,.98-1.98,2.38-3.55,4.19-4.71,1.81-1.16,3.9-1.74,6.25-1.74s4.42,.53,6.2,1.59c1.78,1.06,3.14,2.56,4.09,4.49,.95,1.93,1.42,4.15,1.42,6.67,0,.46-.03,.78-.1,.98h-19.32c.07,1.83,.51,3.37,1.32,4.63,.82,1.26,1.84,2.2,3.07,2.82,1.23,.62,2.49,.93,3.8,.93,3.07,0,5.44-1.5,7.11-4.51l3.68,1.77c-1.05,1.96-2.49,3.54-4.34,4.73-1.85,1.19-4.06,1.79-6.64,1.79-2.35,0-4.45-.55-6.3-1.67Zm13.31-13.97c-.07-.98-.34-1.96-.83-2.94-.49-.98-1.28-1.81-2.38-2.5-1.1-.69-2.49-1.03-4.19-1.03-1.83,0-3.42,.59-4.75,1.77-1.34,1.18-2.19,2.75-2.55,4.7h14.71Z"/>
          <path class="cls-3" d="M643.64,16.21h3.97v3.63h.2c.69-1.24,1.76-2.29,3.24-3.14,1.47-.85,3.04-1.27,4.71-1.27,2.97,0,5.24,.87,6.79,2.6,1.55,1.73,2.33,4.1,2.33,7.11v15.39h-4.12v-14.76c0-4.38-2.04-6.57-6.13-6.57-1.31,0-2.48,.38-3.53,1.13-1.05,.75-1.86,1.73-2.43,2.94-.57,1.21-.86,2.49-.86,3.83v13.43h-4.17V16.21Z"/>
          <path class="cls-3" d="M675.73,40.81c-.83-.33-1.54-.78-2.13-1.35-.65-.63-1.14-1.37-1.45-2.22-.31-.85-.47-1.86-.47-3.02v-14.24h-4.31v-3.78h4.31v-7.26h4.12v7.26h5.98v3.78h-5.98v13.24c0,1.4,.28,2.44,.83,3.11,.56,.74,1.4,1.1,2.55,1.1,1.01,0,1.9-.23,2.65-.69v4.02c-.52,.2-1.02,.33-1.5,.42-.47,.08-1.1,.12-1.89,.12-.98,0-1.89-.17-2.72-.5Z"/>
          <path class="cls-3" d="M704.09,38.9c-2.78-1.6-4.96-3.81-6.55-6.62-1.59-2.81-2.38-5.91-2.38-9.31s.79-6.5,2.38-9.32c1.59-2.81,3.77-5.02,6.55-6.62,2.78-1.6,5.85-2.4,9.22-2.4,2.65,0,5.06,.5,7.23,1.5s4.04,2.41,5.61,4.24l-2.94,2.89c-1.31-1.6-2.77-2.78-4.39-3.53-1.62-.75-3.46-1.13-5.52-1.13-2.52,0-4.84,.6-6.96,1.79-2.13,1.19-3.82,2.88-5.07,5.05-1.26,2.18-1.89,4.68-1.89,7.53s.63,5.35,1.89,7.52c1.26,2.18,2.95,3.86,5.07,5.05,2.12,1.19,4.45,1.79,6.96,1.79,4.28,0,7.91-1.75,10.89-5.25l2.99,2.94c-1.6,1.93-3.6,3.46-5.98,4.58-2.39,1.13-5.02,1.69-7.89,1.69-3.37,0-6.44-.8-9.22-2.4Z"/>
          <path class="cls-3" d="M731.25,5.42h4.17V40.52h-4.17V5.42Z"/>
          <path class="cls-3" d="M743.14,38.71c-1.55-1.73-2.33-4.13-2.33-7.21v-15.3h4.17v14.61c0,4.48,2.01,6.72,6.03,6.72,1.34,0,2.54-.38,3.6-1.13,1.06-.75,1.88-1.73,2.45-2.94,.57-1.21,.86-2.48,.86-3.83v-13.43h4.12v24.32h-3.92v-3.63h-.2c-.72,1.24-1.81,2.29-3.26,3.14-1.46,.85-3.02,1.27-4.68,1.27-3.01,0-5.29-.86-6.84-2.6Z"/>
          <path class="cls-3" d="M775.2,40.06c-1.49-.83-2.61-1.89-3.36-3.16h-.2v3.63h-3.97V5.42h4.17v11.03l-.2,3.33h.2c.79-1.24,1.91-2.28,3.38-3.11s3.17-1.25,5.1-1.25c2.09,0,4.02,.56,5.79,1.69,1.76,1.13,3.17,2.67,4.22,4.63,1.05,1.96,1.57,4.17,1.57,6.62s-.52,4.66-1.57,6.62c-1.05,1.96-2.45,3.51-4.22,4.63-1.77,1.13-3.69,1.69-5.79,1.69-1.93,0-3.64-.42-5.12-1.25Zm8.48-3.65c1.23-.75,2.21-1.82,2.94-3.21,.73-1.39,1.1-3,1.1-4.83s-.37-3.44-1.1-4.83c-.74-1.39-1.72-2.46-2.94-3.21s-2.56-1.13-4-1.13-2.77,.37-4,1.1c-1.22,.74-2.2,1.8-2.94,3.19-.74,1.39-1.1,3.02-1.1,4.88s.37,3.45,1.1,4.85c.74,1.4,1.72,2.48,2.94,3.21,1.23,.74,2.56,1.1,4,1.1s2.77-.38,4-1.13Z"/>
          <path class="cls-3" d="M797.88,39.35c-1.8-1.31-3.06-2.93-3.77-4.85l3.68-1.62c.65,1.54,1.58,2.71,2.77,3.53,1.19,.82,2.49,1.23,3.9,1.23,1.57,0,2.87-.34,3.9-1.03,1.03-.69,1.54-1.52,1.54-2.5s-.38-1.73-1.15-2.35c-.77-.62-2.08-1.16-3.95-1.62l-3.33-.83c-1.83-.42-3.39-1.19-4.68-2.3-1.29-1.11-1.93-2.58-1.93-4.41,0-1.5,.43-2.8,1.3-3.87,.86-1.08,2.02-1.9,3.46-2.45,1.44-.56,3.01-.83,4.71-.83,2.09,0,4,.48,5.71,1.45,1.72,.96,2.93,2.33,3.65,4.09l-3.68,1.57c-.52-1.18-1.32-2.04-2.38-2.6-1.06-.55-2.25-.83-3.55-.83s-2.43,.31-3.46,.93c-1.03,.62-1.54,1.42-1.54,2.4,0,.85,.33,1.52,1,2.01s1.74,.93,3.21,1.32l3.63,.88c2.42,.62,4.22,1.54,5.42,2.77,1.19,1.23,1.79,2.69,1.79,4.39,0,1.4-.41,2.68-1.22,3.82-.82,1.15-1.96,2.04-3.43,2.7-1.47,.65-3.14,.98-5,.98-2.58,0-4.77-.65-6.57-1.96Z"/>
        </g>
        <g>
          <path class="cls-2" d="M23.04,23.51l15.72-9.07c3.7-2.14,4.97-6.86,2.83-10.56-2.14-3.7-6.86-4.97-10.56-2.83L3.87,16.72l19.17,6.79Z"/>
          <path class="cls-4" d="M34.88,46.83c2.67,0,5.27-1.39,6.7-3.87,2.14-3.7,.87-8.43-2.83-10.56L11.6,16.72c-3.7-2.14-8.43-.87-10.56,2.83-2.14,3.7-.87,8.43,2.83,10.56l27.16,15.68c1.22,.7,2.55,1.04,3.86,1.04Z"/>
          <path class="cls-1" d="M61.9,46.83c1.31,0,2.64-.33,3.86-1.04l27.16-15.68-18.93-6.93-15.96,9.21c-3.7,2.14-4.97,6.87-2.83,10.56,1.43,2.48,4.03,3.87,6.7,3.87Z"/>
          <path class="cls-5" d="M89.04,31.15c2.67,0,5.27-1.39,6.7-3.87,2.14-3.7,.87-8.43-2.83-10.56L65.76,1.04c-3.7-2.14-8.43-.87-10.56,2.83-2.14,3.7-.87,8.43,2.83,10.56l27.16,15.68c1.22,.7,2.55,1.04,3.86,1.04Z"/>
        </g>
      </g>
      <g>
        <path class="cls-3" d="M122.15,66.7h2.89v21.82h10.79v2.78h-13.68v-24.61Z"/>
        <path class="cls-3" d="M139.3,69.93c-.41-.41-.62-.9-.62-1.48s.21-1.06,.62-1.46c.41-.4,.91-.6,1.48-.6s1.07,.2,1.48,.6c.41,.4,.62,.89,.62,1.46s-.2,1.07-.6,1.48c-.4,.41-.9,.62-1.49,.62s-1.07-.21-1.48-.62Zm.04,3.85h2.89v17.53h-2.89v-17.53Z"/>
        <path class="cls-3" d="M152.13,90.95c-1.07-.61-1.86-1.34-2.39-2.22h-.14v2.58h-2.78v-24.61h2.92v7.25l-.14,2.44h.14c.53-.89,1.32-1.64,2.39-2.25,1.07-.61,2.26-.91,3.59-.91,1.56,0,2.98,.4,4.26,1.2,1.28,.8,2.29,1.91,3.02,3.33s1.1,3.01,1.1,4.78-.37,3.39-1.1,4.79c-.73,1.41-1.74,2.51-3.02,3.32s-2.7,1.2-4.26,1.2c-1.33,0-2.53-.3-3.59-.91Zm6.1-2.56c.89-.55,1.61-1.33,2.15-2.35,.54-1.02,.81-2.18,.81-3.49s-.27-2.47-.81-3.49c-.54-1.02-1.25-1.8-2.15-2.35-.89-.55-1.84-.83-2.85-.83s-1.96,.28-2.85,.83-1.6,1.33-2.13,2.34c-.53,1.01-.79,2.18-.79,3.5s.26,2.5,.79,3.51c.53,1.01,1.24,1.79,2.13,2.34s1.84,.82,2.85,.82,1.96-.27,2.85-.82Z"/>
        <path class="cls-3" d="M172.18,90.21l-7.25-16.43h3.16l5.5,13.02h.07l5.29-13.02h3.16l-10.83,24.95h-3.02l3.92-8.52Z"/>
        <path class="cls-3" d="M185.86,91.1c-1.01-.5-1.79-1.2-2.34-2.08s-.83-1.88-.83-3.01c0-1.86,.7-3.3,2.1-4.35,1.4-1.04,3.16-1.56,5.29-1.56,1.05,0,2.03,.11,2.94,.34,.91,.23,1.6,.49,2.08,.79v-1.07c0-1.31-.46-2.35-1.38-3.14-.92-.79-2.07-1.19-3.47-1.19-.99,0-1.89,.21-2.72,.64-.82,.42-1.48,1.01-1.96,1.77l-2.2-1.65c.69-1.05,1.63-1.88,2.84-2.47,1.2-.59,2.54-.89,4-.89,2.38,0,4.26,.62,5.62,1.87,1.36,1.25,2.04,2.95,2.04,5.1v11.1h-2.78v-2.51h-.14c-.5,.85-1.26,1.57-2.27,2.17-1.01,.6-2.14,.89-3.4,.89s-2.43-.25-3.44-.76Zm6.46-2.58c.85-.5,1.52-1.18,2.03-2.03,.5-.85,.76-1.78,.76-2.78-.55-.37-1.23-.66-2.03-.89-.8-.23-1.65-.34-2.54-.34-1.6,0-2.81,.33-3.63,1-.81,.67-1.22,1.52-1.22,2.58,0,.96,.37,1.74,1.1,2.34s1.66,.89,2.78,.89c.98,0,1.9-.25,2.75-.76Z"/>
        <path class="cls-3" d="M201.95,73.78h2.78v2.58h.14c.48-.87,1.25-1.61,2.3-2.22,1.05-.61,2.18-.91,3.37-.91,2.11,0,3.72,.61,4.83,1.84,1.11,1.23,1.67,2.89,1.67,5v11.24h-2.92v-10.79c0-1.63-.39-2.81-1.17-3.54-.78-.73-1.84-1.1-3.2-1.1-.94,0-1.78,.26-2.53,.79-.75,.53-1.32,1.22-1.74,2.08-.41,.86-.62,1.76-.62,2.7v9.86h-2.92v-17.53Z"/>
        <path class="cls-3" d="M229.78,66.7h2.89v24.61h-2.89v-24.61Z"/>
        <path class="cls-3" d="M237.58,73.78h2.78v2.58h.14c.48-.87,1.25-1.61,2.3-2.22,1.05-.61,2.18-.91,3.37-.91,2.11,0,3.72,.61,4.83,1.84,1.11,1.23,1.67,2.89,1.67,5v11.24h-2.92v-10.79c0-1.63-.39-2.81-1.17-3.54-.78-.73-1.84-1.1-3.2-1.1-.94,0-1.78,.26-2.53,.79-.75,.53-1.32,1.22-1.74,2.08-.41,.86-.62,1.76-.62,2.7v9.86h-2.92v-17.53Z"/>
        <path class="cls-3" d="M260.76,91.24c-.61-.23-1.12-.54-1.53-.93-.46-.43-.8-.94-1.03-1.51-.23-.57-.34-1.27-.34-2.1v-10.28h-3.06v-2.65h3.06v-4.95h2.92v4.95h4.26v2.65h-4.26v9.55c0,.96,.18,1.67,.55,2.13,.43,.5,1.07,.76,1.89,.76,.66,0,1.31-.19,1.92-.58v2.85c-.34,.16-.69,.28-1.05,.34-.36,.07-.81,.1-1.36,.1-.71,0-1.37-.12-1.98-.34Z"/>
        <path class="cls-3" d="M271.12,90.65c-1.33-.8-2.37-1.91-3.11-3.32-.75-1.41-1.12-3-1.12-4.76s.35-3.25,1.05-4.67c.7-1.42,1.69-2.55,2.97-3.4s2.77-1.27,4.47-1.27,3.21,.38,4.47,1.15c1.26,.77,2.23,1.83,2.9,3.18,.67,1.35,1.01,2.9,1.01,4.64,0,.34-.03,.64-.1,.89h-13.85c.07,1.33,.39,2.45,.96,3.37,.57,.92,1.3,1.6,2.18,2.06,.88,.46,1.8,.69,2.77,.69,2.25,0,3.97-1.05,5.19-3.16l2.47,1.2c-.76,1.42-1.78,2.54-3.08,3.37-1.29,.83-2.86,1.24-4.69,1.24-1.67,0-3.17-.4-4.5-1.2Zm9.55-9.97c-.05-.73-.25-1.47-.62-2.2s-.95-1.35-1.74-1.86c-.79-.5-1.78-.76-2.97-.76-1.38,0-2.54,.44-3.49,1.32-.95,.88-1.58,2.04-1.87,3.49h10.69Z"/>
        <path class="cls-3" d="M287.17,73.78h2.78v2.82h.14c.34-.96,1.01-1.76,1.99-2.39,.99-.63,2.02-.94,3.09-.94,.8,0,1.49,.11,2.06,.34v3.16c-.73-.37-1.56-.55-2.47-.55-.85,0-1.63,.24-2.34,.72s-1.28,1.13-1.7,1.94c-.42,.81-.64,1.69-.64,2.63v9.79h-2.92v-17.53Z"/>
        <path class="cls-3" d="M300.06,73.78h2.78v2.58h.14c.48-.87,1.25-1.61,2.3-2.22,1.05-.61,2.18-.91,3.37-.91,2.11,0,3.72,.61,4.83,1.84,1.11,1.23,1.67,2.89,1.67,5v11.24h-2.92v-10.79c0-1.63-.39-2.81-1.17-3.54-.78-.73-1.84-1.1-3.2-1.1-.94,0-1.78,.26-2.53,.79-.75,.53-1.32,1.22-1.74,2.08-.41,.86-.62,1.76-.62,2.7v9.86h-2.92v-17.53Z"/>
        <path class="cls-3" d="M321.33,91.1c-1.01-.5-1.79-1.2-2.34-2.08s-.83-1.88-.83-3.01c0-1.86,.7-3.3,2.1-4.35,1.4-1.04,3.16-1.56,5.29-1.56,1.05,0,2.03,.11,2.94,.34,.91,.23,1.6,.49,2.08,.79v-1.07c0-1.31-.46-2.35-1.38-3.14-.92-.79-2.07-1.19-3.47-1.19-.99,0-1.89,.21-2.72,.64-.82,.42-1.48,1.01-1.96,1.77l-2.2-1.65c.69-1.05,1.63-1.88,2.84-2.47,1.2-.59,2.54-.89,4-.89,2.38,0,4.26,.62,5.62,1.87,1.36,1.25,2.04,2.95,2.04,5.1v11.1h-2.78v-2.51h-.14c-.5,.85-1.26,1.57-2.27,2.17-1.01,.6-2.14,.89-3.4,.89s-2.43-.25-3.44-.76Zm6.46-2.58c.85-.5,1.52-1.18,2.03-2.03,.5-.85,.76-1.78,.76-2.78-.55-.37-1.23-.66-2.03-.89-.8-.23-1.65-.34-2.54-.34-1.6,0-2.81,.33-3.63,1-.81,.67-1.22,1.52-1.22,2.58,0,.96,.37,1.74,1.1,2.34s1.66,.89,2.78,.89c.98,0,1.9-.25,2.75-.76Z"/>
        <path class="cls-3" d="M341.83,91.24c-.61-.23-1.12-.54-1.53-.93-.46-.43-.8-.94-1.03-1.51-.23-.57-.34-1.27-.34-2.1v-10.28h-3.06v-2.65h3.06v-4.95h2.92v4.95h4.26v2.65h-4.26v9.55c0,.96,.18,1.67,.55,2.13,.43,.5,1.07,.76,1.89,.76,.66,0,1.31-.19,1.92-.58v2.85c-.34,.16-.69,.28-1.05,.34-.36,.07-.81,.1-1.36,.1-.71,0-1.37-.12-1.98-.34Z"/>
        <path class="cls-3" d="M350.06,69.93c-.41-.41-.62-.9-.62-1.48s.21-1.06,.62-1.46c.41-.4,.91-.6,1.48-.6s1.07,.2,1.48,.6c.41,.4,.62,.89,.62,1.46s-.2,1.07-.6,1.48c-.4,.41-.9,.62-1.49,.62s-1.07-.21-1.48-.62Zm.04,3.85h2.89v17.53h-2.89v-17.53Z"/>
        <path class="cls-3" d="M360.85,90.62c-1.37-.82-2.45-1.95-3.21-3.37-.77-1.42-1.15-2.99-1.15-4.71s.38-3.29,1.15-4.71c.77-1.42,1.84-2.54,3.21-3.37,1.38-.82,2.92-1.24,4.64-1.24s3.26,.41,4.64,1.24c1.37,.83,2.45,1.95,3.21,3.37,.77,1.42,1.15,2.99,1.15,4.71s-.38,3.29-1.15,4.71c-.77,1.42-1.84,2.54-3.21,3.37-1.38,.83-2.92,1.24-4.64,1.24s-3.26-.41-4.64-1.24Zm7.65-2.22c.93-.54,1.67-1.31,2.23-2.32,.56-1.01,.84-2.19,.84-3.54s-.28-2.53-.84-3.54c-.56-1.01-1.31-1.78-2.23-2.32-.93-.54-1.93-.81-3.01-.81s-2.08,.27-3.02,.81c-.94,.54-1.69,1.31-2.25,2.32-.56,1.01-.84,2.19-.84,3.54s.28,2.53,.84,3.54c.56,1.01,1.31,1.78,2.25,2.32,.94,.54,1.95,.81,3.02,.81s2.08-.27,3.01-.81Z"/>
        <path class="cls-3" d="M377.56,73.78h2.78v2.58h.14c.48-.87,1.25-1.61,2.3-2.22,1.05-.61,2.18-.91,3.37-.91,2.11,0,3.72,.61,4.83,1.84,1.11,1.23,1.67,2.89,1.67,5v11.24h-2.92v-10.79c0-1.63-.39-2.81-1.17-3.54-.78-.73-1.84-1.1-3.2-1.1-.94,0-1.78,.26-2.53,.79-.75,.53-1.32,1.22-1.74,2.08-.41,.86-.62,1.76-.62,2.7v9.86h-2.92v-17.53Z"/>
        <path class="cls-3" d="M398.83,91.1c-1.01-.5-1.79-1.2-2.34-2.08s-.83-1.88-.83-3.01c0-1.86,.7-3.3,2.1-4.35,1.4-1.04,3.16-1.56,5.29-1.56,1.05,0,2.03,.11,2.94,.34,.91,.23,1.6,.49,2.08,.79v-1.07c0-1.31-.46-2.35-1.38-3.14-.92-.79-2.07-1.19-3.47-1.19-.99,0-1.89,.21-2.72,.64-.82,.42-1.48,1.01-1.96,1.77l-2.2-1.65c.69-1.05,1.63-1.88,2.84-2.47,1.2-.59,2.54-.89,4-.89,2.38,0,4.26,.62,5.62,1.87,1.36,1.25,2.04,2.95,2.04,5.1v11.1h-2.78v-2.51h-.14c-.5,.85-1.26,1.57-2.27,2.17-1.01,.6-2.14,.89-3.4,.89s-2.43-.25-3.44-.76Zm6.46-2.58c.85-.5,1.52-1.18,2.03-2.03,.5-.85,.76-1.78,.76-2.78-.55-.37-1.23-.66-2.03-.89-.8-.23-1.65-.34-2.54-.34-1.6,0-2.81,.33-3.63,1-.81,.67-1.22,1.52-1.22,2.58,0,.96,.37,1.74,1.1,2.34s1.66,.89,2.78,.89c.98,0,1.9-.25,2.75-.76Z"/>
        <path class="cls-3" d="M414.91,66.7h2.92v24.61h-2.92v-24.61Z"/>
        <path class="cls-3" d="M430.72,66.7h4.23l7.83,20.17h.14l7.84-20.17h4.23v24.61h-2.89v-15.64l.14-4.67h-.14l-8.04,20.31h-2.41l-8.04-20.31h-.14l.14,4.67v15.64h-2.89v-24.61Z"/>
        <path class="cls-3" d="M463.2,90.65c-1.33-.8-2.37-1.91-3.11-3.32-.75-1.41-1.12-3-1.12-4.76s.35-3.25,1.05-4.67c.7-1.42,1.69-2.55,2.97-3.4s2.77-1.27,4.47-1.27,3.21,.38,4.47,1.15c1.26,.77,2.23,1.83,2.9,3.18,.67,1.35,1.01,2.9,1.01,4.64,0,.34-.03,.64-.1,.89h-13.85c.07,1.33,.39,2.45,.96,3.37,.57,.92,1.3,1.6,2.18,2.06,.88,.46,1.8,.69,2.77,.69,2.25,0,3.97-1.05,5.19-3.16l2.47,1.2c-.76,1.42-1.78,2.54-3.08,3.37-1.29,.83-2.86,1.24-4.69,1.24-1.67,0-3.17-.4-4.5-1.2Zm9.55-9.97c-.05-.73-.25-1.47-.62-2.2s-.95-1.35-1.74-1.86c-.79-.5-1.78-.76-2.97-.76-1.38,0-2.54,.44-3.49,1.32-.95,.88-1.58,2.04-1.87,3.49h10.69Z"/>
        <path class="cls-3" d="M482.6,90.65c-1.27-.8-2.27-1.91-3.01-3.32-.73-1.41-1.1-3.01-1.1-4.79s.37-3.36,1.1-4.78,1.74-2.53,3.01-3.33c1.27-.8,2.69-1.2,4.24-1.2,1.35,0,2.55,.3,3.61,.91,1.05,.61,1.86,1.36,2.41,2.25h.14l-.14-2.44v-7.25h2.92v24.61h-2.78v-2.58h-.14c-.55,.87-1.35,1.61-2.41,2.22-1.05,.61-2.26,.91-3.61,.91-1.56,0-2.97-.4-4.24-1.2Zm7.46-2.27c.88-.55,1.59-1.33,2.13-2.34,.54-1.01,.81-2.18,.81-3.51s-.27-2.5-.81-3.5c-.54-1.01-1.25-1.79-2.13-2.34-.88-.55-1.84-.83-2.87-.83s-1.96,.28-2.85,.83-1.61,1.33-2.15,2.35c-.54,1.02-.81,2.18-.81,3.49s.27,2.47,.81,3.49c.54,1.02,1.25,1.8,2.15,2.35s1.84,.82,2.85,.82,1.99-.27,2.87-.82Z"/>
        <path class="cls-3" d="M500.35,69.93c-.41-.41-.62-.9-.62-1.48s.21-1.06,.62-1.46c.41-.4,.91-.6,1.48-.6s1.07,.2,1.48,.6c.41,.4,.62,.89,.62,1.46s-.2,1.07-.6,1.48c-.4,.41-.9,.62-1.49,.62s-1.07-.21-1.48-.62Zm.04,3.85h2.89v17.53h-2.89v-17.53Z"/>
        <path class="cls-3" d="M511.07,90.64c-1.35-.81-2.41-1.92-3.16-3.33s-1.13-3-1.13-4.76,.38-3.36,1.13-4.78,1.81-2.53,3.16-3.33c1.35-.8,2.88-1.2,4.57-1.2,1.9,0,3.5,.44,4.79,1.32,1.29,.88,2.22,2.06,2.77,3.52l-2.65,1.1c-.44-1.08-1.08-1.9-1.94-2.46-.86-.56-1.9-.84-3.11-.84-1.03,0-1.99,.28-2.89,.84-.89,.56-1.61,1.35-2.15,2.35-.54,1.01-.81,2.17-.81,3.47s.27,2.46,.81,3.47c.54,1.01,1.25,1.79,2.15,2.35,.89,.56,1.86,.84,2.89,.84,1.24,0,2.3-.29,3.2-.86,.89-.57,1.56-1.39,1.99-2.44l2.61,1.1c-.6,1.44-1.55,2.61-2.87,3.51s-2.92,1.34-4.79,1.34c-1.7,0-3.22-.41-4.57-1.22Z"/>
        <path class="cls-3" d="M528.46,91.1c-1.01-.5-1.79-1.2-2.34-2.08s-.83-1.88-.83-3.01c0-1.86,.7-3.3,2.1-4.35,1.4-1.04,3.16-1.56,5.29-1.56,1.05,0,2.03,.11,2.94,.34,.91,.23,1.6,.49,2.08,.79v-1.07c0-1.31-.46-2.35-1.38-3.14-.92-.79-2.07-1.19-3.47-1.19-.99,0-1.89,.21-2.72,.64-.82,.42-1.48,1.01-1.96,1.77l-2.2-1.65c.69-1.05,1.63-1.88,2.84-2.47,1.2-.59,2.54-.89,4-.89,2.38,0,4.26,.62,5.62,1.87,1.36,1.25,2.04,2.95,2.04,5.1v11.1h-2.78v-2.51h-.14c-.5,.85-1.26,1.57-2.27,2.17-1.01,.6-2.14,.89-3.4,.89s-2.43-.25-3.44-.76Zm6.46-2.58c.85-.5,1.52-1.18,2.03-2.03,.5-.85,.76-1.78,.76-2.78-.55-.37-1.23-.66-2.03-.89-.8-.23-1.65-.34-2.54-.34-1.6,0-2.81,.33-3.63,1-.81,.67-1.22,1.52-1.22,2.58,0,.96,.37,1.74,1.1,2.34s1.66,.89,2.78,.89c.98,0,1.9-.25,2.75-.76Z"/>
        <path class="cls-3" d="M544.54,66.7h2.92v24.61h-2.92v-24.61Z"/>
        <path class="cls-3" d="M563.55,90.64c-1.38-.81-2.44-1.95-3.2-3.4s-1.13-3.13-1.13-5.04v-15.5h2.92v15.64c0,1.99,.53,3.61,1.58,4.86,1.05,1.25,2.57,1.87,4.54,1.87s3.49-.62,4.55-1.87,1.6-2.87,1.6-4.86v-15.64h2.89v15.5c0,1.9-.36,3.59-1.08,5.05-.72,1.47-1.76,2.6-3.13,3.4s-2.97,1.2-4.83,1.2-3.33-.41-4.71-1.22Z"/>
        <path class="cls-3" d="M581.48,73.78h2.78v2.58h.14c.48-.87,1.25-1.61,2.3-2.22,1.05-.61,2.18-.91,3.37-.91,2.11,0,3.72,.61,4.83,1.84,1.11,1.23,1.67,2.89,1.67,5v11.24h-2.92v-10.79c0-1.63-.39-2.81-1.17-3.54-.78-.73-1.84-1.1-3.2-1.1-.94,0-1.78,.26-2.53,.79-.75,.53-1.32,1.22-1.74,2.08-.41,.86-.62,1.76-.62,2.7v9.86h-2.92v-17.53Z"/>
        <path class="cls-3" d="M601,69.93c-.41-.41-.62-.9-.62-1.48s.21-1.06,.62-1.46c.41-.4,.91-.6,1.48-.6s1.07,.2,1.48,.6c.41,.4,.62,.89,.62,1.46s-.2,1.07-.6,1.48c-.4,.41-.9,.62-1.49,.62s-1.07-.21-1.48-.62Zm.04,3.85h2.89v17.53h-2.89v-17.53Z"/>
        <path class="cls-3" d="M606.61,73.78h3.13l5.43,14.09h.07l5.5-14.09h3.06l-7.15,17.53h-2.96l-7.08-17.53Z"/>
        <path class="cls-3" d="M628.98,90.65c-1.33-.8-2.37-1.91-3.11-3.32-.75-1.41-1.12-3-1.12-4.76s.35-3.25,1.05-4.67c.7-1.42,1.69-2.55,2.97-3.4s2.77-1.27,4.47-1.27,3.21,.38,4.47,1.15c1.26,.77,2.23,1.83,2.9,3.18,.67,1.35,1.01,2.9,1.01,4.64,0,.34-.03,.64-.1,.89h-13.85c.07,1.33,.39,2.45,.96,3.37,.57,.92,1.3,1.6,2.18,2.06,.88,.46,1.8,.69,2.77,.69,2.25,0,3.97-1.05,5.19-3.16l2.47,1.2c-.76,1.42-1.78,2.54-3.08,3.37-1.29,.83-2.86,1.24-4.69,1.24-1.67,0-3.17-.4-4.5-1.2Zm9.55-9.97c-.05-.73-.25-1.47-.62-2.2s-.95-1.35-1.74-1.86c-.79-.5-1.78-.76-2.97-.76-1.38,0-2.54,.44-3.49,1.32-.95,.88-1.58,2.04-1.87,3.49h10.69Z"/>
        <path class="cls-3" d="M645.03,73.78h2.78v2.82h.14c.34-.96,1.01-1.76,1.99-2.39,.99-.63,2.02-.94,3.09-.94,.8,0,1.49,.11,2.06,.34v3.16c-.73-.37-1.56-.55-2.47-.55-.85,0-1.63,.24-2.34,.72s-1.28,1.13-1.7,1.94c-.42,.81-.64,1.69-.64,2.63v9.79h-2.92v-17.53Z"/>
        <path class="cls-3" d="M658.64,90.53c-1.26-.88-2.15-2.01-2.68-3.38l2.61-1.17c.44,1.05,1.08,1.87,1.94,2.44,.86,.57,1.8,.86,2.83,.86,1.1,0,2.04-.22,2.82-.67,.78-.45,1.17-1.08,1.17-1.91,0-.73-.31-1.32-.93-1.77-.62-.45-1.59-.83-2.92-1.15l-2.13-.55c-1.4-.34-2.54-.93-3.44-1.75-.89-.82-1.34-1.89-1.34-3.2,0-1.01,.3-1.9,.91-2.66,.61-.77,1.41-1.36,2.42-1.77,1.01-.41,2.1-.62,3.26-.62,1.54,0,2.9,.33,4.11,1,1.2,.67,2.06,1.59,2.56,2.78l-2.54,1.17c-.78-1.56-2.17-2.34-4.16-2.34-.96,0-1.8,.22-2.53,.67-.72,.45-1.08,1.01-1.08,1.7,0,.64,.25,1.16,.76,1.56,.5,.4,1.26,.73,2.27,.98l2.54,.65c1.72,.44,3.01,1.08,3.88,1.94,.87,.86,1.31,1.91,1.31,3.14,0,1.08-.31,2.02-.93,2.84-.62,.81-1.46,1.44-2.51,1.87-1.05,.44-2.22,.65-3.51,.65-1.88,0-3.45-.44-4.71-1.32Z"/>
        <path class="cls-3" d="M673.55,69.93c-.41-.41-.62-.9-.62-1.48s.21-1.06,.62-1.46c.41-.4,.91-.6,1.48-.6s1.07,.2,1.48,.6c.41,.4,.62,.89,.62,1.46s-.2,1.07-.6,1.48c-.4,.41-.9,.62-1.49,.62s-1.07-.21-1.48-.62Zm.04,3.85h2.89v17.53h-2.89v-17.53Z"/>
        <path class="cls-3" d="M685.67,91.24c-.61-.23-1.12-.54-1.53-.93-.46-.43-.8-.94-1.03-1.51-.23-.57-.34-1.27-.34-2.1v-10.28h-3.06v-2.65h3.06v-4.95h2.92v4.95h4.26v2.65h-4.26v9.55c0,.96,.18,1.67,.55,2.13,.43,.5,1.07,.76,1.89,.76,.66,0,1.31-.19,1.92-.58v2.85c-.34,.16-.69,.28-1.05,.34-.36,.07-.81,.1-1.36,.1-.71,0-1.37-.12-1.98-.34Z"/>
        <path class="cls-3" d="M699.02,90.21l-7.25-16.43h3.16l5.5,13.02h.07l5.29-13.02h3.16l-10.83,24.95h-3.02l3.92-8.52Z"/>
      </g>
    </g>
  </g>
</svg>